<svg width="978" height="175" viewBox="0 0 978 175" fill="none" xmlns="http://www.w3.org/2000/svg">
<path d="M4.75 133V128.688C5 128.688 5.27083 128.708 5.5625 128.75C5.85417 128.75 6.27083 128.75 6.8125 128.75C12.3542 128.75 15.1667 121.021 15.25 105.562C15.2917 101.646 15.3333 98.5833 15.375 96.375L15.625 79.75C15.6667 76.1667 15.6875 72.6875 15.6875 69.3125C15.7292 65.8958 15.75 62 15.75 57.625C15.75 54.0417 15.0833 51.5625 13.75 50.1875C12.4167 48.8125 10.0417 48.125 6.625 48.125H6.125V43.8125C8.875 43.9375 11.4167 44.0625 13.75 44.1875C16.125 44.2708 18.1042 44.3125 19.6875 44.3125C24.2708 44.3125 29.3125 44.1458 34.8125 43.8125C40.3542 43.4375 43.6042 43.25 44.5625 43.25C60.0625 43.25 72.2708 47.1875 81.1875 55.0625C90.1042 62.9375 94.5625 73.6458 94.5625 87.1875C94.5625 101.104 90.0833 112.312 81.125 120.812C72.2083 129.271 60.2708 133.5 45.3125 133.5C43.1042 133.5 39.0833 133.333 33.25 133C27.4167 132.667 22.6875 132.5 19.0625 132.5C17.3542 132.5 15.2708 132.542 12.8125 132.625C10.3542 132.708 7.66667 132.833 4.75 133ZM26.875 125.438C29.9167 126.104 32.8958 126.604 35.8125 126.938C38.7708 127.229 41.7292 127.375 44.6875 127.375C56.4375 127.375 65.4375 124.167 71.6875 117.75C77.9792 111.333 81.125 102.167 81.125 90.25C81.125 77.5417 77.75 67.5833 71 60.375C64.25 53.1667 54.875 49.5625 42.875 49.5625C40.4167 49.5625 37.9167 49.6667 35.375 49.875C32.8333 50.0417 30.2292 50.3125 27.5625 50.6875C27.3125 65.8542 27.125 77.8125 27 86.5625C26.9167 95.3125 26.875 102.604 26.875 108.438V125.438ZM104.75 43.8125C107.667 43.9792 110.562 44.1042 113.438 44.1875C116.312 44.2708 119.125 44.3125 121.875 44.3125C124.208 44.3125 126.812 44.2708 129.688 44.1875C132.562 44.1042 135.604 43.9792 138.812 43.8125V48.125H137.75C135.042 48.125 133 48.4375 131.625 49.0625C130.292 49.6875 129.354 50.7292 128.812 52.1875C128.479 53.1458 128.229 54.7083 128.062 56.875C127.938 59 127.875 62.4792 127.875 67.3125V79.75V110.875C127.875 115.792 127.979 119.25 128.188 121.25C128.438 123.25 128.812 124.729 129.312 125.688C129.854 126.729 130.812 127.479 132.188 127.938C133.604 128.396 135.583 128.625 138.125 128.625H139.438V133C135.854 132.833 132.542 132.708 129.5 132.625C126.458 132.542 123.917 132.5 121.875 132.5C119.458 132.5 116.729 132.542 113.688 132.625C110.646 132.708 107.458 132.833 104.125 133V128.625H105.375C107.958 128.625 109.938 128.396 111.312 127.938C112.688 127.479 113.646 126.729 114.188 125.688C114.771 124.562 115.167 122.729 115.375 120.188C115.625 117.604 115.75 112.958 115.75 106.25V96.375V71.9375C115.75 65.3958 115.667 60.75 115.5 58C115.333 55.2083 115.062 53.2708 114.688 52.1875C114.188 50.7292 113.271 49.6875 111.938 49.0625C110.646 48.4375 108.625 48.125 105.875 48.125H104.75V43.8125ZM187.125 55.5625L172.812 92.9375C173.604 92.9375 174.75 92.9583 176.25 93C180.958 93.125 184.167 93.1875 185.875 93.1875C187.958 93.1875 191.729 93.125 197.188 93C198.396 92.9583 199.312 92.9375 199.938 92.9375L187.125 55.5625ZM184.312 43.8125H195.062C200.479 60.3542 205.604 75.4583 210.438 89.125C215.312 102.792 219.146 113.062 221.938 119.938C223.604 123.896 225.042 126.333 226.25 127.25C227.458 128.167 229.188 128.625 231.438 128.625H232.688V133C229.438 132.833 226.458 132.708 223.75 132.625C221.083 132.542 218.833 132.5 217 132.5C214.667 132.5 212.104 132.542 209.312 132.625C206.521 132.708 203.562 132.833 200.438 133V128.625H201.625C204.583 128.625 206.604 128.292 207.688 127.625C208.771 126.917 209.312 125.646 209.312 123.812C209.312 123.146 209.229 122.417 209.062 121.625C208.896 120.792 208.625 119.812 208.25 118.688L202.125 99.5625C200.542 99.5625 198.375 99.5417 195.625 99.5C190.625 99.375 187.417 99.3125 186 99.3125C183.167 99.3125 180.479 99.3333 177.938 99.375C175.438 99.375 172.833 99.4167 170.125 99.5C167.167 106.958 165.146 112.396 164.062 115.812C162.979 119.229 162.438 121.667 162.438 123.125C162.438 125.167 162.979 126.604 164.062 127.438C165.146 128.229 167.083 128.625 169.875 128.625H171.562V133C168.521 132.833 165.667 132.708 163 132.625C160.375 132.542 158.021 132.5 155.938 132.5C154.271 132.5 152.188 132.542 149.688 132.625C147.188 132.708 144.479 132.833 141.562 133V128.688C144.521 128.604 146.854 128.021 148.562 126.938C150.312 125.812 151.833 123.958 153.125 121.375C155.458 116.5 159.583 106.75 165.5 92.125C171.458 77.4583 177.729 61.3542 184.312 43.8125ZM319.062 46.75C319.146 49.8333 319.354 52.9792 319.688 56.1875C320.021 59.3542 320.5 62.6042 321.125 65.9375L316.375 66.9375C315.208 61.0208 312.417 56.6458 308 53.8125C303.583 50.9792 297.333 49.5625 289.25 49.5625C278.333 49.5625 269.854 52.7708 263.812 59.1875C257.812 65.6042 254.812 74.6875 254.812 86.4375C254.812 99.0625 258.25 109.146 265.125 116.688C272 124.229 281.104 128 292.438 128C294.812 128 297.208 127.771 299.625 127.312C302.042 126.812 304.604 126.062 307.312 125.062C307.438 121.854 307.521 119.125 307.562 116.875C307.646 114.625 307.688 112.792 307.688 111.375C307.688 104.25 306.896 99.9792 305.312 98.5625C303.729 97.1042 300.25 96.375 294.875 96.375H294V92.1875C297.542 92.3542 300.812 92.4792 303.812 92.5625C306.854 92.6458 309.417 92.6875 311.5 92.6875C314.542 92.6875 317.375 92.6458 320 92.5625C322.667 92.4792 325.208 92.3542 327.625 92.1875V96.375C324.125 96.375 321.833 97.0625 320.75 98.4375C319.708 99.7708 319.188 103.958 319.188 111V117.5C319.188 120.708 319.229 123.208 319.312 125C319.396 126.75 319.521 128.438 319.688 130.062C318.312 130.354 316.25 130.812 313.5 131.438C302.708 133.854 294.542 135.062 289 135.062C274.542 135.062 262.958 130.854 254.25 122.438C245.583 114.021 241.25 102.854 241.25 88.9375C241.25 75.0208 245.917 63.7083 255.25 55C264.625 46.25 276.771 41.875 291.688 41.875C296.188 41.875 300.708 42.2917 305.25 43.125C309.833 43.9167 314.438 45.125 319.062 46.75ZM413.938 90.25C413.938 78.125 410.812 68.1875 404.562 60.4375C398.312 52.6458 390.438 48.75 380.938 48.75C371.812 48.75 364.479 52.0833 358.938 58.75C353.438 65.4167 350.688 74.3333 350.688 85.5C350.688 97.9167 353.812 108.104 360.062 116.062C366.354 124.021 374.208 128 383.625 128C392.708 128 400.021 124.583 405.562 117.75C411.146 110.875 413.938 101.708 413.938 90.25ZM382.312 41.75C388.646 41.75 394.292 42.6667 399.25 44.5C404.25 46.2917 408.771 49.0833 412.812 52.875C417.646 57.4583 421.333 62.7708 423.875 68.8125C426.458 74.8542 427.75 81.2708 427.75 88.0625C427.75 94.9792 426.396 101.521 423.688 107.688C420.979 113.854 417.125 119.167 412.125 123.625C408.125 127.208 403.458 130.021 398.125 132.062C392.833 134.062 387.521 135.062 382.188 135.062C375.521 135.062 369.375 133.833 363.75 131.375C358.167 128.917 353.229 125.271 348.938 120.438C345.021 116.021 342.021 111.062 339.938 105.562C337.896 100.062 336.875 94.2708 336.875 88.1875C336.875 81.6042 338.104 75.3958 340.562 69.5625C343.062 63.6875 346.667 58.5417 351.375 54.125C355.625 50.125 360.417 47.0625 365.75 44.9375C371.083 42.8125 376.604 41.75 382.312 41.75ZM437.438 43.8125C439.396 43.9792 441.292 44.1042 443.125 44.1875C445 44.2708 446.833 44.3125 448.625 44.3125C449.958 44.3125 451.521 44.2708 453.312 44.1875C455.104 44.1042 457.042 43.9792 459.125 43.8125C459.667 45.1875 460.417 46.6042 461.375 48.0625C462.333 49.5208 463.542 51.125 465 52.875L516.562 113.875C516.438 107.542 516.312 99.1458 516.188 88.6875C515.854 66.7292 515.479 54.9167 515.062 53.25C514.562 51.3333 513.667 50 512.375 49.25C511.125 48.5 509.062 48.125 506.188 48.125H504.25V43.8125C504.75 43.8125 505.5 43.8333 506.5 43.875C512.417 44.1667 516.583 44.3125 519 44.3125C521.458 44.3125 525.75 44.1667 531.875 43.875C532.75 43.8333 533.417 43.8125 533.875 43.8125L533.812 48.125C533.562 48.0833 533.292 48.0625 533 48.0625C532.708 48.0208 532.312 48 531.812 48C526.229 48 523.396 55.7708 523.312 71.3125C523.271 75.2292 523.25 78.2917 523.25 80.5L523 97.125C522.917 99.5833 522.854 102.125 522.812 104.75C522.812 107.333 522.812 110.896 522.812 115.438C522.812 120.479 522.875 124.417 523 127.25C523.125 130.042 523.333 132.292 523.625 134H516.688C515.979 132.333 513.458 129 509.125 124L508.5 123.25L454.875 60.1875V61.625C455.125 100.625 455.542 121.25 456.125 123.5C456.625 125.417 457.5 126.75 458.75 127.5C460.042 128.25 462.083 128.625 464.875 128.625H466.75V133C466.125 132.958 465.208 132.917 464 132.875C458.167 132.625 454.188 132.5 452.062 132.5C450.021 132.5 447.75 132.542 445.25 132.625C442.792 132.708 440.188 132.833 437.438 133V128.688C437.688 128.688 437.958 128.708 438.25 128.75C438.583 128.75 439 128.75 439.5 128.75C445.083 128.75 447.917 121.021 448 105.562C448.042 101.646 448.062 98.5833 448.062 96.375L448.375 79.75C448.417 76.1667 448.438 72.6875 448.438 69.3125C448.479 65.8958 448.5 62 448.5 57.625C448.5 54.0417 447.812 51.5625 446.438 50.1875C445.062 48.8125 442.625 48.125 439.125 48.125H437.438V43.8125ZM616.375 55.5625L602.062 92.9375C602.854 92.9375 604 92.9583 605.5 93C610.208 93.125 613.417 93.1875 615.125 93.1875C617.208 93.1875 620.979 93.125 626.438 93C627.646 92.9583 628.562 92.9375 629.188 92.9375L616.375 55.5625ZM613.562 43.8125H624.312C629.729 60.3542 634.854 75.4583 639.688 89.125C644.562 102.792 648.396 113.062 651.188 119.938C652.854 123.896 654.292 126.333 655.5 127.25C656.708 128.167 658.438 128.625 660.688 128.625H661.938V133C658.688 132.833 655.708 132.708 653 132.625C650.333 132.542 648.083 132.5 646.25 132.5C643.917 132.5 641.354 132.542 638.562 132.625C635.771 132.708 632.812 132.833 629.688 133V128.625H630.875C633.833 128.625 635.854 128.292 636.938 127.625C638.021 126.917 638.562 125.646 638.562 123.812C638.562 123.146 638.479 122.417 638.312 121.625C638.146 120.792 637.875 119.812 637.5 118.688L631.375 99.5625C629.792 99.5625 627.625 99.5417 624.875 99.5C619.875 99.375 616.667 99.3125 615.25 99.3125C612.417 99.3125 609.729 99.3333 607.188 99.375C604.688 99.375 602.083 99.4167 599.375 99.5C596.417 106.958 594.396 112.396 593.312 115.812C592.229 119.229 591.688 121.667 591.688 123.125C591.688 125.167 592.229 126.604 593.312 127.438C594.396 128.229 596.333 128.625 599.125 128.625H600.812V133C597.771 132.833 594.917 132.708 592.25 132.625C589.625 132.542 587.271 132.5 585.188 132.5C583.521 132.5 581.438 132.542 578.938 132.625C576.438 132.708 573.729 132.833 570.812 133V128.688C573.771 128.604 576.104 128.021 577.812 126.938C579.562 125.812 581.083 123.958 582.375 121.375C584.708 116.5 588.833 106.75 594.75 92.125C600.708 77.4583 606.979 61.3542 613.562 43.8125ZM671.375 43.625C675.833 43.875 679.208 44.0625 681.5 44.1875C683.833 44.2708 685.708 44.3125 687.125 44.3125C689.833 44.3125 692.479 44.2708 695.062 44.1875C697.688 44.0625 700.292 43.8958 702.875 43.6875V48H700.938C697.646 48 695.417 49.1458 694.25 51.4375C693.083 53.6875 692.5 58.8958 692.5 67.0625V79.5L692.688 125.312C695.021 125.438 697.229 125.542 699.312 125.625C701.438 125.667 703.438 125.688 705.312 125.688C716.479 125.688 723.667 124.667 726.875 122.625C730.125 120.542 732.708 116.542 734.625 110.625L739.125 112C737.833 115.583 736.688 119.104 735.688 122.562C734.688 126.021 733.812 129.5 733.062 133C726.146 132.792 719.771 132.646 713.938 132.562C708.146 132.438 702.708 132.375 697.625 132.375C694.042 132.375 690.042 132.438 685.625 132.562C681.208 132.646 676 132.792 670 133V128.938C670.292 128.979 670.562 129.021 670.812 129.062C671.104 129.062 671.521 129.062 672.062 129.062C677.688 129.021 680.521 121 680.562 105C680.562 101.375 680.583 98.5417 680.625 96.5L680.75 79.5C680.75 77.6667 680.771 75.3125 680.812 72.4375C680.854 69.5625 680.875 67.5625 680.875 66.4375C680.875 58.7708 680.25 53.7917 679 51.5C677.792 49.1667 675.417 48 671.875 48H671.375V43.625ZM744.625 43.625C749.083 43.875 752.458 44.0625 754.75 44.1875C757.083 44.2708 758.958 44.3125 760.375 44.3125C763.083 44.3125 765.729 44.2708 768.312 44.1875C770.938 44.0625 773.542 43.8958 776.125 43.6875V48H774.188C770.896 48 768.667 49.1458 767.5 51.4375C766.333 53.6875 765.75 58.8958 765.75 67.0625V79.5L765.938 125.312C768.271 125.438 770.479 125.542 772.562 125.625C774.688 125.667 776.688 125.688 778.562 125.688C789.729 125.688 796.917 124.667 800.125 122.625C803.375 120.542 805.958 116.542 807.875 110.625L812.375 112C811.083 115.583 809.938 119.104 808.938 122.562C807.938 126.021 807.062 129.5 806.312 133C799.396 132.792 793.021 132.646 787.188 132.562C781.396 132.438 775.958 132.375 770.875 132.375C767.292 132.375 763.292 132.438 758.875 132.562C754.458 132.646 749.25 132.792 743.25 133V128.938C743.542 128.979 743.812 129.021 744.062 129.062C744.354 129.062 744.771 129.062 745.312 129.062C750.938 129.021 753.771 121 753.812 105C753.812 101.375 753.833 98.5417 753.875 96.5L754 79.5C754 77.6667 754.021 75.3125 754.062 72.4375C754.104 69.5625 754.125 67.5625 754.125 66.4375C754.125 58.7708 753.5 53.7917 752.25 51.5C751.042 49.1667 748.667 48 745.125 48H744.625V43.625ZM817.875 43.8125C825.167 44.0625 831.688 44.25 837.438 44.375C843.188 44.5 848.146 44.5625 852.312 44.5625C856.938 44.5625 861.604 44.5 866.312 44.375C871.062 44.25 875.875 44.0625 880.75 43.8125C880.792 46.9375 880.917 50.1458 881.125 53.4375C881.333 56.6875 881.583 59.9583 881.875 63.25L877.688 63.625C877.354 58.625 875.812 55.25 873.062 53.5C870.312 51.7083 864.375 50.8125 855.25 50.8125C852.917 50.8125 848.646 50.875 842.438 51C841.188 51.0417 840.271 51.0625 839.688 51.0625C839.604 56.0625 839.479 62.1875 839.312 69.4375C839.146 76.6875 839.042 81.3958 839 83.5625H840.938C843.396 83.5625 846.458 83.6042 850.125 83.6875C853.833 83.7292 856.312 83.75 857.562 83.75C863.604 83.75 867.583 83.1875 869.5 82.0625C871.458 80.9375 872.521 78.8542 872.688 75.8125L876.625 76.1875C876.333 78.7708 876.104 81.1667 875.938 83.375C875.812 85.5833 875.75 87.625 875.75 89.5C875.75 90.5833 875.854 92.9167 876.062 96.5C876.146 97.7917 876.208 98.7708 876.25 99.4375L872.188 99.5625V99.0625C872.188 95.5208 871.146 93.125 869.062 91.875C867.021 90.625 862.208 90 854.625 90H843.5H839C839 92.0417 838.979 94.875 838.938 98.5C838.896 102.083 838.875 104.667 838.875 106.25C838.875 109 838.896 111.875 838.938 114.875C838.979 117.833 839.062 121.312 839.188 125.312C841.271 125.562 843.625 125.75 846.25 125.875C848.917 126 851.833 126.062 855 126.062C865.458 126.062 872.333 125.062 875.625 123.062C878.958 121.021 881.604 117.125 883.562 111.375L888.062 112.875C886.812 116.333 885.708 119.729 884.75 123.062C883.792 126.396 882.958 129.708 882.25 133C875.708 132.75 869.625 132.562 864 132.438C858.375 132.312 853.292 132.25 848.75 132.25C842.542 132.25 832.542 132.479 818.75 132.938L816.5 133V128.938C816.792 128.979 817.062 129.021 817.312 129.062C817.604 129.062 818.021 129.062 818.562 129.062C824.104 129.062 826.917 121.271 827 105.688C827.042 101.771 827.083 98.7083 827.125 96.5L827.375 79.4375C827.417 75.7708 827.438 72.2083 827.438 68.75C827.479 65.2917 827.5 61.5417 827.5 57.5C827.5 53.9167 826.833 51.4375 825.5 50.0625C824.167 48.6875 821.792 48 818.375 48H817.875V43.8125ZM894 43.8125C897.083 43.9792 899.979 44.1042 902.688 44.1875C905.396 44.2708 907.792 44.3125 909.875 44.3125C912.125 44.3125 914.542 44.2708 917.125 44.1875C919.708 44.1042 922.417 43.9792 925.25 43.8125V48.125H924.375C922.083 48.125 920.333 48.375 919.125 48.875C917.917 49.3333 917.312 50.0208 917.312 50.9375C917.312 51.9375 918.333 54.1875 920.375 57.6875C920.917 58.6042 921.354 59.3542 921.688 59.9375L936.75 86.8125C943.583 75.8542 948.708 67.3958 952.125 61.4375C955.542 55.4792 957.25 52.0208 957.25 51.0625C957.25 50.0625 956.729 49.3333 955.688 48.875C954.688 48.375 953.042 48.125 950.75 48.125H949.688V43.8125C952.188 43.9792 954.562 44.1042 956.812 44.1875C959.062 44.2708 961.042 44.3125 962.75 44.3125C964.875 44.3125 967.042 44.2708 969.25 44.1875C971.458 44.1042 973.729 43.9792 976.062 43.8125V48.125C975.979 48.0833 975.875 48.0625 975.75 48.0625C975.625 48.0208 975.438 48 975.188 48H974.438C970.729 48 965.917 52.75 960 62.25C958.167 65.2083 956.708 67.5417 955.625 69.25L939.875 93.3125L940.125 115.625C940.208 121.417 940.875 125.042 942.125 126.5C943.375 127.917 945.854 128.625 949.562 128.625H951.75V133C948.292 132.833 945 132.708 941.875 132.625C938.792 132.542 936.021 132.5 933.562 132.5C931.479 132.5 928.875 132.542 925.75 132.625C922.667 132.708 919.312 132.833 915.688 133V128.625C915.979 128.625 916.417 128.646 917 128.688C917.583 128.729 918 128.75 918.25 128.75C921.875 128.75 924.333 127.917 925.625 126.25C926.917 124.583 927.604 121.125 927.688 115.875L927.938 93.6875L907.75 59.625C907.375 59.0833 906.896 58.2917 906.312 57.25C902.604 51 899.229 47.875 896.188 47.875C895.979 47.875 895.708 47.8958 895.375 47.9375C895.083 47.9792 894.646 48.0417 894.062 48.125L894 43.8125Z" fill="white"/>
<g clip-path="url(#clip0_107_10)">
<path d="M392.688 58.1491L363.306 84.7113L386.097 91.7781L368.988 118L402.044 86.6631L384.252 78.7281L392.688 58.1491Z" fill="#FFBB00"/>
</g>
<defs>
<clipPath id="clip0_107_10">
<rect width="60" height="60" fill="white" transform="translate(352 58)"/>
</clipPath>
</defs>
</svg>
